<svg width="17.456" height="16.205" fill="none" version="1.1" viewBox="0 0 17.456 16.205" xmlns="http://www.w3.org/2000/svg">
 <defs>
  <filter id="filter1597" x="-.038135" y="-.12655" width="1.0763" height="1.2531" style="color-interpolation-filters:sRGB">
   <feGaussianBlur stdDeviation="0.2421292"/>
  </filter>
  <filter id="filter1635" x="-.03752" y="-.13384" width="1.075" height="1.2677" style="color-interpolation-filters:sRGB">
   <feGaussianBlur stdDeviation="0.25385366"/>
  </filter>
  <filter id="filter1651" x="-.03745" y="-.13473" width="1.0749" height="1.2695" style="color-interpolation-filters:sRGB">
   <feGaussianBlur stdDeviation="0.25338344"/>
  </filter>
 </defs>
 <g transform="translate(.609 -.41908)" clip-rule="evenodd" fill-rule="evenodd">
  <path d="m0.8119 14.316h7.3883c0.28292 1.0024 1.2495 1.7005 2.3545 1.7005 1.105 0 2.0716-0.6981 2.3545-1.7005h2.5169c0.44841 0 0.8119-0.3411 0.8119-0.7619s-0.36348-0.7619-0.8119-0.7619h-2.6793c-0.40696-0.7885-1.2585-1.2894-2.1921-1.2894-0.93365 0-1.7852 0.5009-2.1921 1.2894h-7.5507c-0.4484 0-0.8119 0.3411-0.8119 0.7619s0.3635 0.7619 0.8119 0.7619zm9.7428-1.3105c0.44846 0 0.81194 0.3412 0.81194 0.7619 0 0.4208-0.36348 0.7619-0.81194 0.7619-0.4484 0-0.8119-0.3411-0.8119-0.7619 0-0.4207 0.36349-0.7619 0.8119-0.7619z" fill="#e7235d" style="fill:#1a1a1a;filter:url(#filter1651);stroke-width:1.0323"/>
  <g fill="#E7235D">
   <path d="m0.8119 9.1924h1.6969c0.27737 1.0096 1.2476 1.7151 2.3586 1.7151 1.111 0 2.0812-0.7055 2.3586-1.7151h8.2002c0.44841 0 0.8119-0.34112 0.8119-0.76191 0-0.42078-0.36348-0.7619-0.8119-0.7619h-8.3626c-0.40154-0.8016-1.2604-1.3133-2.2043-1.3133s-1.8028 0.51174-2.2043 1.3133c-0.072867-0.0072-0.14635-0.0072-0.21922 0h-1.6238c-0.4484 0-0.8119 0.34112-0.8119 0.7619 0 0.42079 0.3635 0.76191 0.8119 0.76191zm4.0595-1.3105c0.4484 0 0.81189 0.34112 0.81189 0.76191s-0.36349 0.7619-0.81189 0.7619-0.81191-0.34111-0.81191-0.7619 0.3635-0.76191 0.81191-0.76191z" style="fill:#1a1a1a;filter:url(#filter1635);stroke-width:1.0323"/>
   <path d="m1.2619 3.8618h6.1638c0.25486 1.0169 1.1688 1.73 2.2172 1.73s1.9622-0.71316 2.2171-1.73h3.1162c0.4208 0 0.7619-0.34111 0.7619-0.7619s-0.3411-0.76191-0.7619-0.76191h-3.0476c-0.0684-0.00725-0.1374-0.00725-0.2057 0-0.3714-0.81499-1.1844-1.338-2.08-1.338-0.8956 0-1.7087 0.52304-2.08 1.338-0.06838-0.00725-0.13734-0.00725-0.20572 0h-6.0952c-0.42079 0-0.7619 0.34112-0.7619 0.76191s0.34112 0.7619 0.7619 0.7619zm8.381-1.3105c0.42079 0 0.7619 0.34111 0.7619 0.7619s-0.34111 0.76191-0.7619 0.76191-0.76191-0.34112-0.76191-0.76191 0.34112-0.7619 0.76191-0.7619z" style="fill:#1a1a1a;filter:url(#filter1597)"/>
   <path d="m0.7619 3.5962h6.1638c0.25486 1.0169 1.1688 1.73 2.2172 1.73s1.9622-0.71316 2.2171-1.73h3.1162c0.4208 0 0.7619-0.34111 0.7619-0.7619s-0.3411-0.76191-0.7619-0.76191h-3.0476c-0.0684-0.00725-0.1374-0.00725-0.2057 0-0.3714-0.81499-1.1844-1.338-2.08-1.338-0.8956 0-1.7087 0.52304-2.08 1.338-0.06838-0.00725-0.13734-0.00725-0.20572 0h-6.0952c-0.42079 0-0.7619 0.34112-0.7619 0.76191s0.34112 0.7619 0.7619 0.7619zm8.381-1.3105c0.42079 0 0.7619 0.34111 0.7619 0.7619s-0.34111 0.76191-0.7619 0.76191-0.76191-0.34112-0.76191-0.76191 0.34112-0.7619 0.76191-0.7619z" style="fill:#fff"/>
   <path d="m0.7619 8.9294h1.5924c0.26029 1.0096 1.1708 1.7151 2.2133 1.7151s1.953-0.7055 2.2133-1.7151h7.6952c0.4208 0 0.7619-0.34112 0.7619-0.76191 0-0.42078-0.3411-0.7619-0.7619-0.7619h-7.8476c-0.37681-0.8016-1.1828-1.3133-2.0686-1.3133s-1.6918 0.51174-2.0686 1.3133c-0.06838-0.00725-0.13734-0.00725-0.20572 0h-1.5238c-0.42079 0-0.7619 0.34112-0.7619 0.7619 0 0.42079 0.34112 0.76191 0.7619 0.76191zm3.8095-1.3105c0.42079 0 0.7619 0.34112 0.7619 0.76191s-0.34111 0.7619-0.7619 0.7619-0.76191-0.34111-0.76191-0.7619 0.34112-0.76191 0.76191-0.76191z" style="fill:#fff"/>
   <path d="m0.7619 14.263h6.9333c0.2655 1.0024 1.1726 1.7005 2.2095 1.7005 1.0369 0 1.944-0.6981 2.2095-1.7005h2.3619c0.4208 0 0.7619-0.3411 0.7619-0.7619s-0.3411-0.7619-0.7619-0.7619h-2.5143c-0.3819-0.7885-1.181-1.2894-2.0571-1.2894-0.87616 0-1.6752 0.5009-2.0571 1.2894h-7.0857c-0.42079 0-0.7619 0.3411-0.7619 0.7619s0.34112 0.7619 0.7619 0.7619zm9.1429-1.3105c0.42084 0 0.76194 0.3412 0.76194 0.7619 0 0.4208-0.3411 0.7619-0.76194 0.7619-0.42079 0-0.7619-0.3411-0.7619-0.7619 0-0.4207 0.34111-0.7619 0.7619-0.7619z" style="fill:#fff"/>
  </g>
 </g>
</svg>
